<?xml version="1.0" encoding="UTF-8" standalone="no"?>
<svg
   xmlns:dc="http://purl.org/dc/elements/1.1/"
   xmlns:cc="http://creativecommons.org/ns#"
   xmlns:rdf="http://www.w3.org/1999/02/22-rdf-syntax-ns#"
   xmlns:svg="http://www.w3.org/2000/svg"
   xmlns="http://www.w3.org/2000/svg"
   xmlns:sodipodi="http://sodipodi.sourceforge.net/DTD/sodipodi-0.dtd"
   xmlns:inkscape="http://www.inkscape.org/namespaces/inkscape"
   width="16.0px"
   height="16.0px"
   viewBox="0 0 16.0 16.0"
   version="1.1"
   id="SVGRoot"
   sodipodi:docname="delete_icon.svg"
   inkscape:version="1.0.1 (3bc2e813f5, 2020-09-07)">
  <defs
     id="defs10" />
  <sodipodi:namedview
     id="base"
     pagecolor="#ffffff"
     bordercolor="#666666"
     borderopacity="1.0"
     inkscape:pageopacity="0.0"
     inkscape:pageshadow="2"
     inkscape:zoom="44.8"
     inkscape:cx="12.685197"
     inkscape:cy="8.8489052"
     inkscape:document-units="px"
     inkscape:current-layer="layer1"
     inkscape:document-rotation="0"
     showgrid="true"
     inkscape:window-width="1920"
     inkscape:window-height="1017"
     inkscape:window-x="1912"
     inkscape:window-y="101"
     inkscape:window-maximized="1"
     inkscape:snap-nodes="false">
    <inkscape:grid
       type="xygrid"
       id="grid19" />
  </sodipodi:namedview>
  <metadata
     id="metadata13">
    <rdf:RDF>
      <cc:Work
         rdf:about="">
        <dc:format>image/svg+xml</dc:format>
        <dc:type
           rdf:resource="http://purl.org/dc/dcmitype/StillImage" />
        <dc:title />
      </cc:Work>
    </rdf:RDF>
  </metadata>
  <g
     inkscape:label="Layer 1"
     inkscape:groupmode="layer"
     id="layer1">
    <path
       id="rect30"
       style="fill:#666666"
       d="M 4 5 L 4 16 L 13 16 L 13 5 L 4 5 z M 5 6 L 6 6 L 6 15 L 5 15 L 5 6 z M 7 6 L 8 6 L 8 15 L 7 15 L 7 6 z M 9 6 L 10 6 L 10 15 L 9 15 L 9 6 z M 11 6 L 12 6 L 12 15 L 11 15 L 11 6 z " />
    <rect
       style="fill:#666666"
       id="rect34"
       width="9"
       height="2"
       x="4"
       y="2"
       ry="7.2495498e-13" />
    <path
       id="rect46"
       style="fill:#666666"
       d="M 6 0 L 6 2 L 7 2 L 7 1 L 10 1 L 10 2 L 11 2 L 11 0 L 6 0 z " />
    <rect
       style="fill:#666666"
       id="rect61"
       width="9"
       height="2"
       x="4"
       y="5"
       ry="7.2495498e-13" />
    <rect
       style="fill:#666666"
       id="rect63"
       width="9"
       height="2"
       x="4"
       y="14"
       ry="7.2495498e-13" />
    <rect
       style="fill:#666666"
       id="rect65"
       width="0.87053573"
       height="2.03125"
       x="5.625"
       y="0"
       ry="7.2495498e-13" />
    <rect
       style="fill:#666666"
       id="rect69"
       width="0.78125"
       height="2.0089285"
       x="10.535714"
       y="0.022321429"
       ry="7.2495498e-13" />
    <rect
       style="fill:#666666"
       id="rect71"
       width="4.21875"
       height="0.625"
       x="6.4285712"
       y="0.625"
       ry="7.2495498e-13" />
  </g>
</svg>
