<?xml version="1.0" encoding="UTF-8" standalone="no"?>
<svg
   xmlns:dc="http://purl.org/dc/elements/1.1/"
   xmlns:cc="http://creativecommons.org/ns#"
   xmlns:rdf="http://www.w3.org/1999/02/22-rdf-syntax-ns#"
   xmlns:svg="http://www.w3.org/2000/svg"
   xmlns="http://www.w3.org/2000/svg"
   xmlns:sodipodi="http://sodipodi.sourceforge.net/DTD/sodipodi-0.dtd"
   xmlns:inkscape="http://www.inkscape.org/namespaces/inkscape"
   width="20.0px"
   height="20.0px"
   viewBox="0 0 16.0 16.0"
   version="1.1"
   id="SVGRoot"
   sodipodi:docname="searchbar_search_icon.svg"
   inkscape:version="1.0.1 (3bc2e813f5, 2020-09-07)">
  <defs
     id="defs10" />
  <sodipodi:namedview
     id="base"
     pagecolor="#ffffff"
     bordercolor="#666666"
     borderopacity="1.0"
     inkscape:pageopacity="0.0"
     inkscape:pageshadow="2"
     inkscape:zoom="22.4"
     inkscape:cx="11.916475"
     inkscape:cy="10.791523"
     inkscape:document-units="px"
     inkscape:current-layer="layer1"
     inkscape:document-rotation="0"
     showgrid="true"
     inkscape:window-width="1920"
     inkscape:window-height="1017"
     inkscape:window-x="1912"
     inkscape:window-y="101"
     inkscape:window-maximized="1"
     inkscape:snap-bbox="false"
     inkscape:snap-global="false">
    <inkscape:grid
       type="xygrid"
       id="grid19" />
  </sodipodi:namedview>
  <metadata
     id="metadata13">
    <rdf:RDF>
      <cc:Work
         rdf:about="">
        <dc:format>image/svg+xml</dc:format>
        <dc:type
           rdf:resource="http://purl.org/dc/dcmitype/StillImage" />
        <dc:title />
      </cc:Work>
    </rdf:RDF>
  </metadata>
  <g
     inkscape:label="Layer 1"
     inkscape:groupmode="layer"
     id="layer1">
    <path
       id="path16"
       style="fill:#999999;stroke-width:1.04517;stroke:#999999"
       d="M 8.0957031 0.16015625 A 6.7867268 6.800454 26.903333 0 0 3.3652344 2.1484375 A 6.7867268 6.800454 26.903333 0 0 3.3417969 11.761719 A 6.7867268 6.800454 26.903333 0 0 12.943359 11.769531 A 6.7867268 6.800454 26.903333 0 0 12.966797 2.15625 A 6.7867268 6.800454 26.903333 0 0 8.0957031 0.16015625 z M 8.1582031 3.4882812 A 3.4448802 3.3447386 6.3912865 0 1 8.6953125 3.5195312 A 3.4448802 3.3447386 6.3912865 0 1 11.664062 7.2890625 A 3.4448802 3.3447386 6.3912865 0 1 7.8046875 10.148438 A 3.4448802 3.3447386 6.3912865 0 1 4.8339844 6.3808594 A 3.4448802 3.3447386 6.3912865 0 1 8.1582031 3.4882812 z "
       transform="scale(0.8)" />
    <rect
       style="fill:#999999;stroke-width:0.627967;stroke:#999999"
       id="rect20"
       width="3.4807413"
       height="8.8368397"
       x="-0.11799971"
       y="11.406616"
       ry="3.4497663e-14"
       transform="matrix(0.77543245,-0.63143053,0.63287875,0.77425092,0,0)" />
  </g>
</svg>
