<?xml version="1.0" encoding="UTF-8" standalone="no"?>
<svg
   xmlns:dc="http://purl.org/dc/elements/1.1/"
   xmlns:cc="http://creativecommons.org/ns#"
   xmlns:rdf="http://www.w3.org/1999/02/22-rdf-syntax-ns#"
   xmlns:svg="http://www.w3.org/2000/svg"
   xmlns="http://www.w3.org/2000/svg"
   xmlns:sodipodi="http://sodipodi.sourceforge.net/DTD/sodipodi-0.dtd"
   xmlns:inkscape="http://www.inkscape.org/namespaces/inkscape"
   width="17.0px"
   height="17.0px"
   viewBox="0 0 16.0 16.0"
   version="1.1"
   id="SVGRoot"
   sodipodi:docname="time_icon.svg"
   inkscape:version="1.0.1 (3bc2e813f5, 2020-09-07)">
  <defs
     id="defs1402" />
  <sodipodi:namedview
     id="base"
     pagecolor="#ffffff"
     bordercolor="#666666"
     borderopacity="1.0"
     inkscape:pageopacity="0.0"
     inkscape:pageshadow="2"
     inkscape:zoom="44.8"
     inkscape:cx="11.18945"
     inkscape:cy="8.5376938"
     inkscape:document-units="px"
     inkscape:current-layer="layer1"
     inkscape:document-rotation="0"
     showgrid="true"
     inkscape:window-width="1920"
     inkscape:window-height="1017"
     inkscape:window-x="1912"
     inkscape:window-y="101"
     inkscape:window-maximized="1"
     inkscape:snap-nodes="false">
    <inkscape:grid
       type="xygrid"
       id="grid1972" />
  </sodipodi:namedview>
  <metadata
     id="metadata1405">
    <rdf:RDF>
      <cc:Work
         rdf:about="">
        <dc:format>image/svg+xml</dc:format>
        <dc:type
           rdf:resource="http://purl.org/dc/dcmitype/StillImage" />
        <dc:title />
      </cc:Work>
    </rdf:RDF>
  </metadata>
  <g
     inkscape:label="Layer 1"
     inkscape:groupmode="layer"
     id="layer1">
    <ellipse
       style="fill:#99ccda;stroke:none;stroke-width:1.06667;fill-opacity:0.23529412"
       id="path838"
       cx="7.8214288"
       cy="8.4880953"
       rx="6.726191"
       ry="6.4880953" />
    <path
       id="path1981"
       style="fill:#666666;stroke:#666666"
       d="m 7.8348214,1.5 a 7,7 0 0 0 -6.90624997,7 7,7 0 0 0 6.99999997,7 7,7 0 0 0 6.9999996,-7 7,7 0 0 0 -6.9999996,-7 7,7 0 0 0 -0.09375,0 z m 0.109375,0.6796875 A 6.2734623,6.3523817 0 0 1 14.217633,8.53125 6.2734623,6.3523817 0 0 1 7.9441964,14.884766 6.2734623,6.3523817 0 0 1 1.6707589,8.53125 6.2734623,6.3523817 0 0 1 7.9441964,2.1796875 Z" />
    <rect
       style="fill:#666666;stroke:#666666;stroke-width:0.808409"
       id="rect1993"
       width="0.94456875"
       height="4.8431139"
       x="7.3794413"
       y="4.3183322" />
    <rect
       style="fill:#666666;stroke:#666666;stroke-width:0.689658"
       id="rect1993-5"
       width="0.88899601"
       height="3.7451239"
       x="-4.7748752"
       y="11.017096"
       transform="matrix(0.47836567,-0.87816074,0.88022123,0.47456358,0,0)" />
  </g>
</svg>
