<?xml version="1.0" encoding="UTF-8" standalone="no"?>
<svg
   xmlns:dc="http://purl.org/dc/elements/1.1/"
   xmlns:cc="http://creativecommons.org/ns#"
   xmlns:rdf="http://www.w3.org/1999/02/22-rdf-syntax-ns#"
   xmlns:svg="http://www.w3.org/2000/svg"
   xmlns="http://www.w3.org/2000/svg"
   xmlns:sodipodi="http://sodipodi.sourceforge.net/DTD/sodipodi-0.dtd"
   xmlns:inkscape="http://www.inkscape.org/namespaces/inkscape"
   width="20.0px"
   height="20.0px"
   viewBox="0 0 16.0 16.0"
   version="1.1"
   id="SVGRoot"
   sodipodi:docname="user_icon.svg"
   inkscape:version="1.0.1 (3bc2e813f5, 2020-09-07)">
  <defs
     id="defs18" />
  <sodipodi:namedview
     id="base"
     pagecolor="#ffffff"
     bordercolor="#666666"
     borderopacity="1.0"
     inkscape:pageopacity="0.0"
     inkscape:pageshadow="2"
     inkscape:zoom="31.678384"
     inkscape:cx="9.7063639"
     inkscape:cy="10.840246"
     inkscape:document-units="px"
     inkscape:current-layer="layer1"
     inkscape:document-rotation="0"
     showgrid="true"
     inkscape:window-width="1346"
     inkscape:window-height="1040"
     inkscape:window-x="26"
     inkscape:window-y="0"
     inkscape:window-maximized="0">
    <inkscape:grid
       type="xygrid"
       id="grid27" />
  </sodipodi:namedview>
  <metadata
     id="metadata21">
    <rdf:RDF>
      <cc:Work
         rdf:about="">
        <dc:format>image/svg+xml</dc:format>
        <dc:type
           rdf:resource="http://purl.org/dc/dcmitype/StillImage" />
        <dc:title />
      </cc:Work>
    </rdf:RDF>
  </metadata>
  <g
     inkscape:label="Layer 1"
     inkscape:groupmode="layer"
     id="layer1">
    <path
       id="path71"
       style="fill:#f9f9f9;stroke-width:0.0258024"
       d="M 8.0092217,3.2 C 6.1894261,3.1870385 4.5483855,4.6492499 4.1979276,6.7531714 c -0.067537,0.4054519 -0.061253,1.2071501 0.012068,1.5907504 0.2448359,1.2809048 0.9372786,2.3341732 1.9382326,2.9463342 0.1475465,0.09023 0.2047665,0.138118 0.1822373,0.152722 -0.4820677,0.312529 -0.7235823,0.512594 -1.0632521,0.878496 -0.486162,0.523706 -0.8574818,1.107299 -1.2008353,1.886735 -0.025083,0.05694 -0.042509,0.114606 -0.066378,0.171644 0.018063,0.0125 0.035894,0.02421 0.05431,0.04459 0.030505,0.03379 0.070591,0.05904 0.098963,0.09596 0.054445,0.01618 0.098391,0.03314 0.045861,0.03514 0.00131,0.0013 0.00233,0.0028 0.00363,0.0041 -0.013614,-0.003 -0.010063,5.16e-4 -0.02293,-0.0014 -0.036619,-0.0051 -0.082196,-0.01164 -0.065171,-0.0054 0.022117,0.0081 0.045455,0.0097 0.06879,0.01216 0.00938,9.53e-4 0.018551,0.0022 0.027758,0.0041 -0.00264,-0.0032 -0.00446,-0.0066 -0.00725,-0.0095 0.012072,0.0027 0.00837,0.0085 0.016897,0.01216 0.00367,2.6e-4 0.00737,1.25e-4 0.010858,0.0014 0.00589,0.002 0.00969,0.01055 0.014483,0.01622 -0.00312,-0.0067 -0.01271,-0.01216 -0.025344,-0.01757 -0.00286,-2.05e-4 -0.00565,-7.63e-4 -0.00844,-0.0014 0.00582,0.0016 0.022272,0.01209 0.036207,0.02162 0.00329,0.0028 0.0054,0.0075 0.00844,0.01082 0.00121,-0.0014 0.0019,-0.0027 0.00242,-0.0041 0.016544,0.01192 0.015687,0.01342 0.032585,0.02703 0.050567,0.0119 0.063988,0.02257 0.092928,0.04459 0.00215,-9e-4 0.00298,0.0027 0.00483,0.0027 0.014171,0.01208 0.027885,0.02282 0.02293,0.03785 0.027909,-0.0034 0.056676,-0.0019 0.074826,0.01352 l 0.00121,0.0014 c 0.067492,0.0031 0.1026734,0.0228 0.069999,0.07704 0.0062,0.0082 0.00904,0.01285 0.014483,0.02162 0.012096,-0.01549 0.02834,0.0032 0.044655,0.03785 0.034827,0.01978 0.060213,0.04919 0.083274,0.08244 -0.020352,-0.0041 -0.044704,-0.0014 -0.053102,0.0027 3.99e-4,0.0015 8.187e-4,0.0026 0.00121,0.0041 0.048258,0.0197 0.059795,0.01961 0.072412,0.01892 -0.00561,-0.0076 -0.011289,-0.01543 -0.016897,-0.02297 0.00333,0.0049 0.00888,0.0069 0.012069,0.01216 0.00209,0.0034 0.00266,0.0069 0.00483,0.01082 h 0.00121 c 0.00674,-4.73e-4 0.038424,0.01337 0.039826,0.01082 -0.02089,-0.0082 -0.036381,-0.03087 -0.05793,-0.03649 -7.8e-4,-2.03e-4 -0.00155,1.92e-4 -0.00242,0 -0.00363,-0.0049 -0.00725,-0.01002 -0.010858,-0.01486 h 0.00242 c -0.040365,-0.03144 0.094812,0.06155 0.06879,0.05135 0.00493,-0.009 -0.00649,-0.0201 0.03862,0.02433 -0.00124,-0.0027 -0.00619,-0.0077 -0.00363,-0.0081 0.00403,-6.92e-4 0.00747,0.0042 0.010858,0.0067 0.012998,0.0097 0.021476,0.02313 0.032585,0.03378 0.06834,0.0092 0.1213531,0.02501 0.06517,0.04865 0.00499,0.0054 0.00988,0.0087 0.014483,0.01486 0.032382,0.0044 0.039726,0.0067 0.1001703,0.05406 -0.017613,-0.03293 0.00403,0.0069 0.021723,0.03648 8.188e-4,3.96e-4 0.0016,9.01e-4 0.00242,0.0014 0.0012,-0.0059 0.00801,-0.0044 0.027758,0.01216 6.736e-4,-10e-4 0.027523,0.0059 0.025344,0.0041 -0.00482,-0.0023 -0.013455,-0.0062 -0.016897,-0.0081 0.00632,0.0014 0.013102,0.0035 0.019309,0.0054 h 0.00121 c 0.00585,0.0027 0.00307,0.0014 0.00725,0.0041 0.00128,8.31e-4 -0.011791,-0.0021 -0.010858,-0.0014 0.025266,0.01234 0.05739,0.03158 0.086894,0.05676 -0.00471,-0.0057 0.011857,-0.0025 0.069999,0.01622 0.00913,0.0029 0.017934,0.0077 0.026552,0.01216 -0.010662,-0.0023 -0.02185,-0.0034 -0.032585,-0.0054 0.034588,0.01717 0.070765,0.03077 0.1037908,0.05135 0.058355,0.0065 0.1133144,0.02661 0.1544793,0.07839 0.010925,0.01375 0.018764,0.03055 0.027758,0.04595 -0.00658,-0.01771 -0.030714,-0.03647 -0.020509,-0.05152 0.00945,-0.01393 0.029995,0.0087 0.044655,0.01486 0.1549308,0.0636 -0.049182,-0.01753 0.095343,0.05811 0.00895,0.0047 -0.01719,-0.01314 -0.021723,-0.02297 -0.0021,-0.0046 0.00876,0.0019 0.013275,0.0027 0.02524,0.01243 0.051424,0.02392 0.076034,0.03785 0.00782,0.0044 0.01444,0.01071 0.021723,0.01621 0.01376,0.0034 0.032825,0.0067 0.03862,0.0081 0.043281,0.01371 0.085284,0.03004 0.1255143,0.05271 0.00911,0.0051 0.03378,0.02426 0.026551,0.01621 -0.023791,-0.02642 -0.045913,-0.01898 -0.015689,-0.02433 0.053004,-0.0088 0.095179,-0.0012 0.130342,0.02028 0.024242,-0.0012 0.01999,-0.0032 0.026552,-0.0027 -0.1191492,-0.147553 0.039859,-0.0026 0.086894,0.04866 -0.0019,-3.06e-4 -0.00207,8.3e-5 -0.00363,0 7.725e-4,1.22e-4 0.00419,0.0014 0.00483,0.0014 0.00246,5.15e-4 0.0035,-9e-4 0.00483,0 0.00202,0.0014 0.00403,0.0027 0.00604,0.0041 -9.394e-4,6.9e-5 -0.00938,-0.0039 -0.010857,-0.0041 5.128e-4,5.65e-4 7.353e-4,0.0022 0.00121,0.0027 0.00438,0.0015 0.00884,0.0027 0.013275,0.0041 0.00382,0.002 0.00914,0.0042 0.00965,0.0041 0.00852,0.0026 0.016797,0.0058 0.025344,0.0081 0.010847,-0.0022 0.022522,-0.0034 0.034998,-0.0041 -0.010346,-0.02066 -0.00999,-0.03106 0.012069,-0.02162 0.032457,-0.319694 0.089028,-0.09801 0.1182732,0.07704 0.032761,0.0071 0.037685,0.0059 0.07724,0.02298 -0.0058,-0.0066 -0.05314,-0.01564 -0.041033,-0.0081 0.016038,0.0099 0.033404,0.01723 0.05069,0.02433 -0.023596,-0.0014 -0.00371,-0.0079 0.084481,0.01486 0.00788,0.002 0.014799,0.0072 0.021723,0.01216 -0.00852,-0.0028 -0.017888,-0.0046 -0.026551,-0.0067 0.032648,0.01013 0.030407,0.01151 0.037414,0.01352 0.00388,0.0012 0.01762,0.0067 0.020517,0.0081 0.0069,9.54e-4 0.010673,0.0013 0.015689,0.0027 0.00301,8.99e-4 0.00457,0.0032 0.00844,0.0054 0.012767,0.0019 0.023581,0.0019 0.06517,0.01621 -0.033072,0.0051 0.0057,0.01353 0.039826,0.02297 0.00175,3.98e-4 0.00296,-5.79e-4 0.00483,0 0.00691,0.0022 0.012988,0.0067 0.01931,0.01082 0.02457,0.0019 0.049049,0.0034 0.073619,0.0054 0.010445,0.0069 0.019712,0.01646 0.031379,0.02028 0.00779,0.0025 -0.013554,-0.0086 -0.018104,-0.01622 -0.00154,-0.0025 0.00454,-0.0018 0.00725,-0.0014 0.064582,0.01111 0.051583,0.0078 0.1037909,0.03109 0.025833,0.0042 0.038829,0.03289 0.060344,0.04459 0.00188,10e-4 -0.00235,-0.0047 -0.00242,-0.0067 v -0.0014 c -0.00177,-4.4e-5 -0.00159,-8.98e-4 -0.00604,-0.0014 0.043276,-0.01034 0.087692,-0.0064 0.1315487,-0.0054 0.012794,2.7e-5 0.025825,1.8e-5 0.03862,0 0.039066,-4.9e-5 0.069317,-7.61e-4 0.1074115,0.02703 0.047259,-0.0049 0.08916,0.0068 0.1363762,0.02703 0.010227,-0.0025 -0.00279,-0.0049 -0.00121,-0.0054 0.023293,-0.0069 0.052067,-0.006 0.076034,-0.0067 l 0.080861,0.03109 c 0.00333,-9.53e-4 0.013485,-0.0019 0.014483,0 0.059003,-0.01045 0.1147822,-0.01879 0.1725822,0.01486 0.00277,0.0016 0.00464,0.0049 0.00725,0.0067 -0.00224,-0.0026 0.00647,-0.0022 0.00965,-0.0027 0.057564,-0.0088 0.1158109,-0.0081 0.1737892,-0.0054 0.035396,0.0065 0.074692,-0.0072 0.1098252,0 0.075561,0.01557 0.058981,0.01094 0.1122391,0.03648 -0.00247,-0.0022 -0.00482,-0.0046 -0.00725,-0.0067 -0.00365,-9.54e-4 -0.00787,-2e-4 -0.010858,-0.0027 -0.00297,-0.0023 0.00717,-0.0022 0.010858,-0.0027 0.024154,-0.0036 0.021003,-0.0032 0.043446,-0.0041 0.040047,0.0012 0.080627,0.0029 0.1206873,0.0014 0.050057,-2.51e-4 0.099592,-1e-6 0.1496514,0 0.041116,-3.3e-5 0.081985,-5e-6 0.1231009,0 0.041716,2e-6 0.083802,0 0.1255144,0 0.02476,-0.01442 0.072642,-0.02831 0.080859,-0.02702 0.00118,-5.39e-4 0.00242,-8.29e-4 0.00365,-0.0014 0.00376,-0.0016 0.008,4.38e-4 0.012069,0.0014 h 0.00124 c 0.045398,-0.01614 0.087838,-0.0187 0.1472378,-0.01622 h 0.00124 c 9.864e-4,3.9e-5 0.00141,-3.6e-5 0.00242,0 -0.00599,-0.0067 0.00836,-0.0064 0.012068,-0.0067 -0.00118,2.1e-4 -0.00242,-2.08e-4 -0.00365,0 -0.027208,0.01013 -6.8e-6,0.002 -0.00606,0.0041 0.00711,-0.0057 0.00882,-0.0083 0.013272,-0.01216 0.00279,-2e-5 0.011005,-0.0014 0.00844,0 -0.014021,0.0071 -0.0082,0.0077 -0.012068,0.0081 0.00204,-3.62e-4 0.00403,-9.53e-4 0.00606,-0.0014 0.071014,-0.04032 0.04006,-0.04547 0.1399966,-0.03785 0.013669,6.3e-5 0.027399,6.59e-4 0.041035,0.0014 0.00315,-6.92e-4 0.00649,-8.31e-4 0.00965,-0.0014 0.038602,-0.02873 0.077357,-0.05301 0.1351695,-0.03919 0.00872,8.3e-4 0.020553,0.0014 0.031378,0.0027 0.010869,-0.0046 0.027923,-0.01567 0.06879,-0.02703 0.057887,-0.0091 0.039837,-0.01002 0.1049974,-0.0014 0.0072,9.54e-4 0.00581,0.0014 0.012068,0.0041 8.497e-4,-2.82e-4 0.00155,-0.0012 0.0024,-0.0014 -0.018302,-0.0079 -0.022152,-0.0049 0.013277,-0.01622 0.034379,-0.02011 0.023311,-0.02761 0.089309,-0.03648 0.021913,-0.003 0.044351,0.0083 0.06638,0.0067 0.011423,-7.61e-4 -0.023836,-0.0018 -0.033792,-0.0081 -0.00386,-0.0025 0.00902,-0.0039 0.013277,-0.0054 0.035817,-0.01536 0.073633,-0.02651 0.1122386,-0.03108 0.00286,-0.0014 0.00541,-0.0025 0.00844,-0.0027 0.0024,-1.82e-4 0.00363,-8.6e-5 0.00726,0 0.079863,-0.02364 0.00254,-0.0067 0.106205,-0.02162 0.00263,-3.45e-4 -0.00571,-0.0023 -0.00844,-0.0027 0.026277,-0.01256 0.036982,-0.01292 0.076035,-0.01892 -0.016051,0.0019 -0.032123,0.0054 -0.048274,0.0054 -0.00371,0 0.00611,-0.0043 0.00965,-0.0054 0.02338,-0.0076 0.047256,-0.01551 0.071207,-0.02028 0.01152,-0.0022 0.02333,-0.0019 0.035,-0.0027 -0.0044,-0.003 -0.0364,0.03275 0.170167,-0.02297 0.02496,-0.0067 -0.05105,-0.01056 -0.07361,-0.02433 -0.0066,-0.0039 0.01453,-0.0046 0.02172,-0.0067 0.02185,-0.0162 0.04673,-0.02495 0.07121,-0.03514 0.0014,-0.0012 0.0023,-0.003 0.0036,-0.0041 0.0051,-0.0041 0.0239,-0.0093 0.01811,-0.0067 -0.0074,0.0032 -0.01426,0.0077 -0.02173,0.01082 -0.0098,0.0087 -0.01853,0.0189 -0.02776,0.02838 0.260311,-0.173754 0.02141,-0.03107 0.155687,-0.08649 0.01077,-0.0044 0.01778,-0.01675 0.02775,-0.02297 0.01077,-0.0067 0.02271,-0.01269 0.0338,-0.01892 -0.01533,0.01334 -0.06222,0.05223 -0.04587,0.04054 0.02856,-0.02041 0.05374,-0.04544 0.08207,-0.06621 0.02278,-0.01672 0.03243,-0.01963 0.04587,-0.02973 0.02535,-0.01488 0.04973,-0.03052 0.07482,-0.04595 0.0051,-0.0015 0.01056,-0.0026 0.01569,-0.0041 7.42e-4,-5.83e-4 0.0017,-7.61e-4 0.0024,-0.0014 0.02268,-0.01802 0.04493,-0.03522 0.07121,-0.05001 0.0074,-0.0037 0.01395,-0.0082 0.02172,-0.01082 0.01137,-0.0037 0.02344,-0.0064 0.035,-0.0095 h 0.0012 c -0.0037,-0.0019 0.0079,-0.0094 0.01326,-0.01216 0.02348,-0.01234 0.04723,-0.02271 0.0712,-0.03378 0.01882,-0.0027 0.0392,-6.5e-5 0.05673,-0.0081 0.0091,-0.0042 -0.0248,0.0059 -0.02896,-0.0041 -0.0036,-0.0086 0.01189,-0.0129 0.0193,-0.01757 0.06695,-0.04172 0.06207,-0.03747 0.136376,-0.0473 0.02155,-0.0029 -0.0425,0.0074 -0.06396,0.01082 0.0016,-0.0029 0.0024,-0.0077 0.0048,-0.0095 0.02999,-0.02185 0.05957,-0.04455 0.09172,-0.06216 0.01815,-0.0099 0.03879,-0.01302 0.05792,-0.02028 -0.01603,0.01023 -0.04224,0.02758 -0.03138,0.02162 0.02198,-0.01212 0.04249,-0.026 0.06397,-0.03919 0.0625,-0.02561 0.120752,-0.06326 0.179825,-0.09731 0.0086,-0.0049 0.0168,-0.01002 0.02535,-0.01486 h 0.0012 c 0.0013,-7.61e-4 0.0024,-0.002 0.0037,-0.0027 2.37e-4,-0.001 0.0019,-0.0034 0.0012,-0.0027 0.02158,-0.02035 0.04338,-0.04007 0.06518,-0.06082 -0.05565,0.03274 0.161955,-0.138275 0.06518,-0.05811 -0.0024,0.009 -0.0025,0.01307 -0.0072,0.02703 0.0066,-0.0049 0.01275,-0.01034 0.0193,-0.01486 0.0079,-0.02423 0.01822,-0.04727 0.03018,-0.06892 0.0087,-0.01586 0.04007,-0.02582 0.06758,-0.03785 0.0055,-0.0081 0.0072,-0.01205 0.02896,-0.03785 0.0072,-0.0085 0.02389,-0.03565 0.02172,-0.02433 -0.0025,0.01321 -0.01513,0.02079 -0.02293,0.03109 -5.78e-4,0.0054 3.08e-4,0.0085 -0.0012,0.01622 0.0023,-6.92e-4 0.0084,-0.0051 0.0096,-0.0054 0.0032,-6.35e-4 0.0052,7.61e-4 0.0096,0 0.0051,-0.01336 0.01701,-0.02736 0.02413,-0.03919 0.0068,-0.02085 0.01352,-0.04115 0.02413,-0.05947 0.004,-0.0069 0.02026,-0.0062 0.0338,-0.01082 0.01834,-0.02928 0.04553,-0.05052 0.09172,-0.06216 0.0089,-0.0086 0.01744,-0.01732 0.02655,-0.02568 9.28e-4,-8.31e-4 0.0019,-3.6e-4 0.0037,-0.0014 3.83e-4,-9e-4 7.72e-4,-0.0018 0.0012,-0.0027 7.73e-4,-1.68e-4 0.0017,1.67e-4 0.0024,0 h 0.0012 v -0.0014 c 0.03864,-0.05763 0.07236,-0.08484 0.148446,-0.101364 -0.507383,-1.262414 -1.257001,-2.283833 -2.1747762,-2.89903 L 9.6,11.428963 9.8293052,11.288404 C 11.324817,10.363678 12.096539,8.4825046 11.748104,6.6139638 11.442207,4.9735316 10.271137,3.6578292 8.796101,3.2973102 8.5320674,3.2327767 8.2691931,3.2018517 8.0092217,3.2 Z m 1.810305,12.58274 c -0.00911,0.0027 0.00317,-0.0016 -0.012065,0.0027 0.016513,-0.0016 0.032727,-0.0067 0.04948,-0.0027 0.012275,0.0029 -0.018792,4.45e-4 -0.037415,0 z m -0.9920473,0.217597 c -0.016691,8.31e-4 -0.012723,4.62e-4 -0.015688,0 -0.016647,0.0077 -0.031124,0.01897 -0.047066,0.02838 0.025117,-0.01887 0.042736,-0.02114 0.062758,-0.02838 z m -1.2370412,-0.0081 c -0.00408,6.91e-4 -0.00795,5.68e-4 -0.012069,0.0014 l 0.010858,0.0041 c 0.00781,0.0064 0.030848,0.02506 0.02293,0.01892 -0.019166,-0.01491 -0.019983,-0.02093 -0.021723,-0.02433 z m -0.012069,0.0014 -0.00242,-0.0014 c -0.00375,0.0012 -0.00215,1.27e-4 -0.016897,0.0041 0.00668,-0.0012 0.012712,-0.0015 0.01931,-0.0027 z M 6.7323534,15.839558 c -0.016454,-0.0037 -0.029122,-4.44e-4 -0.044655,0.0054 0.022164,0.0018 0.044214,0.0036 0.066378,0.0054 -0.00372,-0.0034 -0.00947,-0.0075 -0.021723,-0.01081 z M 6.627356,15.800319 c -0.00263,-3.93e-4 -0.00773,-0.003 -0.013275,-0.0041 0.00436,0.0022 0.00967,0.0026 0.020517,0.0081 0.00237,0.0012 -0.00402,-0.0022 -0.00725,-0.0041 z m -0.013275,-0.0041 c -0.00229,-0.0012 -0.00934,-0.0033 -0.010858,-0.0041 -0.00527,-6.93e-4 -0.015941,-0.0022 -0.012069,-0.0014 0.023508,0.0056 0.01347,0.0035 0.02293,0.0054 z M 5.1851474,15.266412 c 9.191e-4,7.62e-4 0.00153,0.0019 0.00242,0.0027 0.00214,8.3e-4 0.00306,5e-4 0.00483,0.0014 -0.00113,-9.01e-4 -0.00668,-0.0034 -0.00725,-0.0041 z m 0.00242,0.0027 c -0.026474,-0.01066 -0.079108,-0.02469 -0.059136,-0.01892 0.061456,0.0177 0.063805,0.02573 0.078446,0.03649 -0.00489,-0.0067 -0.012746,-0.01171 -0.01931,-0.01757 z m 0.01931,0.01757 c 0.00303,0.0042 0.0099,0.0064 0.012069,0.01081 0.00188,0.0038 -0.00569,-0.0058 -0.00844,-0.0095 -6.92e-4,-5.36e-4 -0.00297,-9e-4 -0.00363,-0.0014 z m 0.00363,0.0014 c 0.00671,0.0051 0.017818,0.003 0.033792,0.01622 -0.022769,-0.01481 -0.037036,-0.02385 -0.047068,-0.03109 0.00621,0.0049 0.00895,0.0088 0.013276,0.01486 z M 5.045162,15.19347 c -2.321e-4,0.0012 0.00318,0.0063 0.00483,0.0095 0.00265,-3.3e-5 0.014642,0.0032 0.015689,0.0027 -0.00668,-0.0047 -0.0135,-0.0085 -0.020517,-0.01216 z m -0.00242,-0.0014 c -0.00462,-0.0022 -0.00832,-0.0069 -0.013275,-0.0081 -0.022629,-0.0051 -0.091315,-2.94e-4 -0.068792,0.0054 0.096445,0.02446 0.07251,0.0135 0.088102,0.01352 -0.00438,-0.0077 -8.883e-4,-0.0022 -0.00604,-0.01082 z M 4.9063601,15.086745 c -0.010002,-0.01097 -0.016718,-0.02712 -0.027758,-0.03109 -0.00859,-0.0032 -0.017663,-0.0036 -0.026551,-0.0054 0.013854,0.01458 0.030061,0.02636 0.042241,0.04459 0.011607,-0.003 0.00514,-0.0051 0.012068,-0.0081 z m -0.05431,-0.03649 c -0.00367,-0.0039 -0.00702,-0.0085 -0.010858,-0.01216 -0.044221,-0.0059 -0.099137,-0.01286 -0.082067,-0.0067 0.030069,0.01078 0.061819,0.01284 0.092928,0.01892 z M 4.5587817,14.802879 c -0.028294,-0.03737 -0.061585,-0.06986 -0.069999,-0.07704 -0.020874,-9.53e-4 -0.040558,-0.0022 -0.060344,-0.0027 0.010929,0.0064 0.013591,0.0086 0.022929,0.01486 0.00668,0.0012 0.014993,0.0016 0.020517,0.0027 -0.00283,0.0017 -0.00559,0.0037 -0.00844,0.0054 0.00968,0.0067 0.027355,0.0175 0.028964,0.01891 0.012321,0.01085 0.021689,0.02657 0.032585,0.03919 -0.00423,-0.006 -0.00813,-0.01269 -0.012069,-0.01891 -0.00792,-0.01255 0.022865,0.0164 0.033792,0.02568 0.012928,0.01098 -7.802e-4,-0.0014 0.00363,0.0027 0.00197,-0.0028 0.0069,-0.0082 0.00844,-0.01082 z m -0.1460313,-0.0919 c -0.0036,4.48e-4 -0.00612,0.0022 -0.00965,0.0027 0.00306,0.0014 0.00406,10e-4 0.00725,0.0027 9.192e-4,-0.0018 0.00182,-0.0036 0.00242,-0.0054 z m -0.00965,0.0027 c -0.00709,-0.008 -0.014594,-0.01774 -0.00965,-0.01352 7.955e-4,0.0022 6.859e-4,0.0065 0.00121,0.0095 -0.00424,-0.0029 -0.013639,-0.0061 -0.018104,-0.0081 0.0028,0.0022 0.00575,0.0043 0.00844,0.0067 0.00335,10e-4 0.00588,0.0012 0.00965,0.0027 0.00199,8.31e-4 0.00275,0.0018 0.00483,0.0027 0.00126,-2.22e-4 0.00235,2.08e-4 0.00363,0 z m -0.018104,-0.0054 c -0.00917,-0.0029 -0.022112,-0.0092 -0.026551,-0.0067 -6.982e-4,0.0082 0.013089,0.01269 0.031378,0.01486 0.00127,-2.63e-4 0.00232,-0.0012 0.00363,-0.0014 -0.00266,-0.0026 -0.00575,-0.0043 -0.00844,-0.0067 z m 0.00483,0.0081 c -0.010793,0.0022 -0.022989,0.0033 -0.031378,0.0054 0.012311,-0.0054 0.025937,0.0095 0.039826,0.01352 5.636e-4,-0.0093 -0.00202,-0.0097 -0.00242,-0.01621 -0.00395,-2.9e-4 -0.00254,-0.0022 -0.00604,-0.0027 z m -0.031378,-0.01486 c 8.033e-4,-9.53e-4 0.00162,-0.0018 0.00242,-0.0027 -0.012295,-0.0035 -0.020856,-0.0084 -0.044655,-0.0095 0.00335,0.0014 9.346e-4,1.64e-4 0.015689,0.0067 l 0.00121,0.0014 -0.020517,0.0014 c 0.011235,0.01055 0.018099,0.01499 0.027758,0.02297 0.00651,-0.0096 0.012067,-0.01307 0.018104,-0.02028 z m -0.018104,0.02028 c -0.012154,0.01786 -0.012329,0.01909 -0.024138,0.04054 -9.346e-4,0.0067 -8.419e-4,0.01354 -0.00121,0.02028 8.11e-4,2e-6 0.0016,-3e-6 0.00242,0 0.0099,-0.0041 0.0122,-0.0082 0.020517,-0.01216 0.0051,-0.0068 0.00842,-0.01574 0.014483,-0.02162 0.00363,-0.0035 0.011045,-0.0018 0.015689,-0.0041 -0.0082,-0.0059 -0.018099,-0.01498 -0.027758,-0.02297 z m 0.027758,0.02297 c 0.00207,0.0014 0.00527,0.0041 0.00725,0.0054 0.00636,-0.0042 0.018248,-0.0095 0.02293,-0.01352 -0.011192,7.61e-4 -0.021221,0.0038 -0.030172,0.0081 z M 4.2920704,14.62576 c -0.00983,-0.0022 -0.0087,-0.0022 -0.018104,-0.0041 -0.00121,-2.47e-4 -0.00122,2.42e-4 -0.00242,0 -0.00501,-10e-4 -0.00487,-0.0018 -0.00965,-0.0027 0.00584,0.0029 0.012045,0.0058 0.01931,0.01081 -0.00131,-0.0023 -0.00346,-0.0032 -0.00483,-0.0054 0.00976,0.0067 0.023691,0.01662 0.018104,0.01216 -0.00606,-0.0049 -0.00836,-0.0033 -0.013275,-0.0067 0.00196,0.0036 0.00543,0.0044 0.00725,0.0081 0.010074,0.0022 0.013365,8.3e-4 0.019309,0.0041 0.00634,0.0034 0.011474,0.0097 0.016897,0.01486 -0.0064,-0.0014 -0.017611,-0.0066 -0.033792,-0.01352 0.00699,0.01501 0.010022,0.02576 0.014483,0.03919 0.00835,-0.0051 0.034981,-0.0039 0.05069,0.0027 0.00375,0.0016 0.00619,0.0059 0.00965,0.0081 0.00266,-0.0028 0.00597,-0.0075 0.00844,-0.0095 -0.00787,-0.0071 -0.033552,-0.0234 -0.045861,-0.02568 -0.00921,-0.0091 -0.016398,-0.01649 -0.036207,-0.03243 z m 0.013275,0.05676 c -0.00217,0.0014 -0.016526,-0.0033 -0.013275,0 6.137e-4,3.1e-5 0.012596,0.0039 0.015689,0.0054 -5.82e-4,-0.0018 -0.00177,-0.0035 -0.00242,-0.0054 z m 0.00242,0.0054 c 2.909e-4,9e-4 9.268e-4,0.0018 0.00121,0.0027 0.00231,-1.72e-4 0.00293,-0.0014 0.00483,-0.0014 -0.00188,-9e-4 -0.00489,-8.31e-4 -0.00604,-0.0014 z m -0.016897,-0.04459 c -9.865e-4,-0.0022 -0.00137,-0.0033 -0.00242,-0.0054 -0.011288,-0.0023 -0.028484,-0.0075 -0.021723,-0.0041 0.018771,0.0095 0.012604,0.0045 0.024138,0.0095 z m -0.091726,-0.08781 c -0.00725,-0.0069 -0.011044,-0.01871 -0.01931,-0.02297 -0.00685,-0.0035 -0.014563,-0.0042 -0.021723,-0.0068 0.00731,0.01045 0.015184,0.02005 0.021723,0.03109 0.01548,0.0012 0.011,-10e-4 0.01931,-0.0014 z m -0.045861,-0.03514 c -0.029782,-0.0088 -0.070377,-0.02177 -0.060344,-0.01757 0.021289,0.009 0.043568,0.01378 0.06517,0.02162 -0.00124,-0.0017 -0.00353,-0.0023 -0.00483,-0.0041 z m 7.6684476,0.13245 c -0.0026,0.0015 -0.0058,0.0014 -0.0085,0.0027 -4.31e-4,0.0055 -0.0087,0.02176 -0.0048,0.01757 0.0048,-0.0051 0.0079,-0.01187 0.01206,-0.01757 2.73e-4,-9.53e-4 9.27e-4,-0.0017 0.0012,-0.0027 z m -0.193098,0.13245 c -0.0058,-2.5e-4 -0.0112,0.0022 -0.0169,0.0027 -0.0012,0.0062 1.87e-4,0.0058 -0.0012,0.01216 0.0016,-9.53e-4 0.0084,-0.0072 0.0085,-0.0067 0.0015,0.0091 -0.01097,0.03439 -0.0059,0.02703 0.0088,-0.01305 0.01097,-0.02354 0.01569,-0.03514 z m -7.130185,0.0473 c -0.025486,0.0017 -0.044002,0.0072 -0.027758,0.0067 0.0339,-0.001 0.033687,0.0067 0.048274,0.0067 0.00306,-0.0031 0.00575,-0.0052 0.00844,-0.0081 -0.010981,-8.98e-4 -0.018401,-0.0062 -0.028964,-0.0054 z m 6.835709,0.213542 c -0.0036,0.0059 -0.0051,0.01066 -0.0085,0.01892 h 0.0012 c 0.0026,-0.0065 0.0057,-0.0125 0.0085,-0.01892 z m -6.8972592,0.0095 c -1.59e-5,8.3e-4 1.112e-4,0.0018 0,0.0027 h 0.00121 c -4.322e-4,-6.66e-4 -7.662e-4,-0.002 -0.00121,-0.0027 z m 0.434473,0.03785 c 0.01052,0.0021 0.0077,0.0014 0.015689,0.0027 -0.00347,-0.002 0.00134,7.61e-4 -0.00242,-0.0014 -0.00376,-0.0022 -0.01743,-0.0022 -0.013275,-0.0014 z m 1.2273913,0.52435 c 0.046951,0.02288 0.04905,0.0199 0.059136,0.02162 -0.00298,-0.003 -0.00492,-0.0075 -0.00844,-0.0095 -0.015057,-0.0088 -0.066264,-0.01979 -0.05069,-0.01216 z m -0.02293,0.0095 c 0.023274,0.02528 0.046522,0.05116 0.057929,0.09867 0.00786,0.03271 -0.020516,-0.06698 -0.042241,-0.09054 -0.00417,-0.0045 -0.010739,-0.0049 -0.015689,-0.0081 z m 0.1399968,0.03378 c 0.01473,0.0042 0.029158,0.0095 0.043448,0.01486 -0.00134,-0.0017 1.01e-5,-0.0012 -0.00121,-0.0027 -0.00884,-0.0037 -0.012901,-0.0077 -0.031378,-0.01216 -0.0036,-8.99e-4 -0.00717,-1.41e-4 -0.010858,0 z m 0.1629276,0.05135 c 3.187e-4,0.0019 9.036e-4,0.0022 0.00121,0.0041 0.018613,0.01625 0.064755,0.04704 0.051895,0.04325 -0.021928,-0.0065 -0.034947,-0.03184 -0.053102,-0.0473 z m -0.2643173,0.09596 c -0.00713,-0.0143 0.00196,0.03362 0.00242,0.05001 0.00615,0.0052 0.011955,0.01094 0.018103,0.01621 h 0.00121 c 7.6e-4,2.24e-4 0.00165,-2.24e-4 0.00242,0 -0.00576,-0.02343 -0.013811,-0.04554 -0.024138,-0.06621 z m -0.3717159,0.01892 c 0.00141,10e-4 0.00221,0.0031 0.00363,0.0041 h 0.00121 c 6.152e-4,-6.6e-4 0.012935,-0.0019 0.00965,-0.0027 -0.011851,-0.0029 -0.00504,6.24e-4 -0.014483,-0.0014 z m -0.067584,0.08109 c 0.00172,0.0052 0.012056,0.0085 0.02293,0.0081 -0.00981,-0.0049 -0.00499,-0.0027 -0.013275,-0.0067 -0.00329,1.78e-4 -0.00636,-0.0014 -0.00965,-0.0014 z m 3.6519876,0.0014 c -0.0021,6.14e-4 -0.00297,0.0015 -0.00606,0.0027 0.00242,-2.77e-4 0.00482,-10e-4 0.00725,-0.0014 z m -3.610954,0.0054 v 0.0014 c 0.00252,-2.98e-4 0.00202,3.33e-4 0.00483,0 -0.00168,4.3e-4 -0.00315,-0.0017 -0.00483,-0.0014 z m 1.5544482,0.02973 c 0.00993,-0.0043 -0.012675,0.0021 -0.00965,0.0014 0.00388,-9.54e-4 0.00706,6.82e-4 0.010858,0 z m 2.5802871,0.154075 c -0.00611,0.0019 -0.012211,0.0041 -0.018105,0.0067 0.00541,-4.63e-4 0.0064,7.61e-4 0.00965,0 0.00309,-6.92e-4 0.011539,-0.0077 0.00844,-0.0067 z" />
    <path
       id="path11"
       style="fill:#f9f9f9;stroke-width:1"
       d="M 9.9804688 0 A 10 10 0 0 0 0 10 A 10 10 0 0 0 10 20 A 10 10 0 0 0 20 10 A 10 10 0 0 0 10 0 A 10 10 0 0 0 9.9804688 0 z M 9.9902344 1 A 8.9999997 8.9999997 0 0 1 10 1 A 8.9999997 8.9999997 0 0 1 19 10 A 8.9999997 8.9999997 0 0 1 10 19 A 8.9999997 8.9999997 0 0 1 1 10 A 8.9999997 8.9999997 0 0 1 9.9902344 1 z "
       transform="scale(0.8)" />
  </g>
</svg>
